# xmcd
#
# Track frame offsets:
#	150
#	59910
#	84564
#	132922
#	185594
#	187706
#	258576
#
# Disc length: 3901 seconds
#
# Revision: 0
# Processed by: cddbd v1.5.2PL0 Copyright (c) Steve Scherf et al.
# Submitted via: audiograbber 1.83.01
#
DISCID=620f3b07
DTITLE=Grateful Dead - 76-06-14 Beacon Theatre, New York NY
DYEAR=1900
DGENRE=
TTITLE0=Let It Grow
TTITLE1=Might As Well
TTITLE2=St Stephen
TTITLE3=Not Fade Away
TTITLE4=Drums
TTITLE5=Stella Blue
TTITLE6=Samson and Delilah
EXTD=
EXTT0=
EXTT1=
EXTT2=
EXTT3=
EXTT4=
EXTT5=
EXTT6=
PLAYORDER=
